<svg width="117" height="39" viewBox="0 0 117 39" fill="none" xmlns="http://www.w3.org/2000/svg">
<g filter="url(#filter0_d_139_196)">
<path d="M22.92 7.248V24H19.56V13.104L15.072 24H12.528L8.016 13.104V24H4.656V7.248H8.472L13.8 19.704L19.128 7.248H22.92ZM27.9459 9.12C27.3539 9.12 26.8579 8.936 26.4579 8.568C26.0739 8.184 25.8819 7.712 25.8819 7.152C25.8819 6.592 26.0739 6.128 26.4579 5.76C26.8579 5.376 27.3539 5.184 27.9459 5.184C28.5379 5.184 29.0259 5.376 29.4099 5.76C29.8099 6.128 30.0099 6.592 30.0099 7.152C30.0099 7.712 29.8099 8.184 29.4099 8.568C29.0259 8.936 28.5379 9.12 27.9459 9.12ZM29.6019 10.704V24H26.2419V10.704H29.6019ZM38.1296 10.488C39.1216 10.488 39.9936 10.688 40.7456 11.088C41.4976 11.472 42.0896 11.976 42.5216 12.6V10.704H45.9056V24.096C45.9056 25.328 45.6576 26.424 45.1616 27.384C44.6656 28.36 43.9216 29.128 42.9296 29.688C41.9376 30.264 40.7376 30.552 39.3296 30.552C37.4416 30.552 35.8896 30.112 34.6736 29.232C33.4736 28.352 32.7936 27.152 32.6336 25.632H35.9696C36.1456 26.24 36.5216 26.72 37.0976 27.072C37.6896 27.44 38.4016 27.624 39.2336 27.624C40.2096 27.624 41.0016 27.328 41.6096 26.736C42.2176 26.16 42.5216 25.28 42.5216 24.096V22.032C42.0896 22.656 41.4896 23.176 40.7216 23.592C39.9696 24.008 39.1056 24.216 38.1296 24.216C37.0096 24.216 35.9856 23.928 35.0576 23.352C34.1296 22.776 33.3936 21.968 32.8496 20.928C32.3216 19.872 32.0576 18.664 32.0576 17.304C32.0576 15.96 32.3216 14.768 32.8496 13.728C33.3936 12.688 34.1216 11.888 35.0336 11.328C35.9616 10.768 36.9936 10.488 38.1296 10.488ZM42.5216 17.352C42.5216 16.536 42.3616 15.84 42.0416 15.264C41.7216 14.672 41.2896 14.224 40.7456 13.92C40.2016 13.6 39.6176 13.44 38.9936 13.44C38.3696 13.44 37.7936 13.592 37.2656 13.896C36.7376 14.2 36.3056 14.648 35.9696 15.24C35.6496 15.816 35.4896 16.504 35.4896 17.304C35.4896 18.104 35.6496 18.808 35.9696 19.416C36.3056 20.008 36.7376 20.464 37.2656 20.784C37.8096 21.104 38.3856 21.264 38.9936 21.264C39.6176 21.264 40.2016 21.112 40.7456 20.808C41.2896 20.488 41.7216 20.04 42.0416 19.464C42.3616 18.872 42.5216 18.168 42.5216 17.352ZM61.7393 10.704V24H58.3553V22.32C57.9233 22.896 57.3553 23.352 56.6513 23.688C55.9633 24.008 55.2113 24.168 54.3953 24.168C53.3553 24.168 52.4353 23.952 51.6353 23.52C50.8353 23.072 50.2033 22.424 49.7393 21.576C49.2913 20.712 49.0673 19.688 49.0673 18.504V10.704H52.4273V18.024C52.4273 19.08 52.6913 19.896 53.2193 20.472C53.7473 21.032 54.4673 21.312 55.3793 21.312C56.3073 21.312 57.0353 21.032 57.5633 20.472C58.0913 19.896 58.3553 19.08 58.3553 18.024V10.704H61.7393ZM77.4144 17.064C77.4144 17.544 77.3824 17.976 77.3184 18.36H67.5984C67.6784 19.32 68.0144 20.072 68.6064 20.616C69.1984 21.16 69.9264 21.432 70.7904 21.432C72.0384 21.432 72.9264 20.896 73.4544 19.824H77.0784C76.6944 21.104 75.9584 22.16 74.8704 22.992C73.7824 23.808 72.4464 24.216 70.8624 24.216C69.5824 24.216 68.4304 23.936 67.4064 23.376C66.3984 22.8 65.6064 21.992 65.0304 20.952C64.4704 19.912 64.1904 18.712 64.1904 17.352C64.1904 15.976 64.4704 14.768 65.0304 13.728C65.5904 12.688 66.3744 11.888 67.3824 11.328C68.3904 10.768 69.5504 10.488 70.8624 10.488C72.1264 10.488 73.2544 10.76 74.2464 11.304C75.2544 11.848 76.0304 12.624 76.5744 13.632C77.1344 14.624 77.4144 15.768 77.4144 17.064ZM73.9344 16.104C73.9184 15.24 73.6064 14.552 72.9984 14.04C72.3904 13.512 71.6464 13.248 70.7664 13.248C69.9344 13.248 69.2304 13.504 68.6544 14.016C68.0944 14.512 67.7504 15.208 67.6224 16.104H73.9344ZM83.2269 6.24V24H79.8669V6.24H83.2269ZM95.5774 7.248V17.616C95.5774 18.752 95.8734 19.624 96.4654 20.232C97.0574 20.824 97.8894 21.12 98.9614 21.12C100.049 21.12 100.889 20.824 101.481 20.232C102.073 19.624 102.369 18.752 102.369 17.616V7.248H105.753V17.592C105.753 19.016 105.441 20.224 104.817 21.216C104.209 22.192 103.385 22.928 102.345 23.424C101.321 23.92 100.177 24.168 98.9134 24.168C97.6654 24.168 96.5294 23.92 95.5054 23.424C94.4974 22.928 93.6974 22.192 93.1054 21.216C92.5134 20.224 92.2174 19.016 92.2174 17.592V7.248H95.5774ZM112.36 7.248V24H109V7.248H112.36Z" fill="white"/>
</g>
<defs>
<filter id="filter0_d_139_196" x="0.655998" y="5.184" width="115.704" height="33.368" filterUnits="userSpaceOnUse" color-interpolation-filters="sRGB">
<feFlood flood-opacity="0" result="BackgroundImageFix"/>
<feColorMatrix in="SourceAlpha" type="matrix" values="0 0 0 0 0 0 0 0 0 0 0 0 0 0 0 0 0 0 127 0" result="hardAlpha"/>
<feOffset dy="4"/>
<feGaussianBlur stdDeviation="2"/>
<feComposite in2="hardAlpha" operator="out"/>
<feColorMatrix type="matrix" values="0 0 0 0 0 0 0 0 0 0 0 0 0 0 0 0 0 0 0.25 0"/>
<feBlend mode="normal" in2="BackgroundImageFix" result="effect1_dropShadow_139_196"/>
<feBlend mode="normal" in="SourceGraphic" in2="effect1_dropShadow_139_196" result="shape"/>
</filter>
</defs>
</svg>
